<mxfile host="app.diagrams.net" agent="Mozilla/5.0 (Windows NT 10.0; Win64; x64) AppleWebKit/537.36 (KHTML, like Gecko) Chrome/131.0.0.0 Safari/537.36" version="24.9.2">
  <diagram name="Página-1" id="hU5ZX5LPVQsZuzWJwxls">
    <mxGraphModel dx="2776" dy="2218" grid="1" gridSize="10" guides="1" tooltips="1" connect="1" arrows="1" fold="1" page="1" pageScale="1" pageWidth="827" pageHeight="1169" math="0" shadow="0">
      <root>
        <mxCell id="0" />
        <mxCell id="1" parent="0" />
        <mxCell id="netVUuGkZEvjik__96yR-2" value="Cliente" style="rounded=0;whiteSpace=wrap;html=1;fontSize=16;strokeWidth=2;fontStyle=1" vertex="1" parent="1">
          <mxGeometry y="170" width="190" height="60" as="geometry" />
        </mxCell>
        <mxCell id="netVUuGkZEvjik__96yR-3" value="tem" style="rhombus;whiteSpace=wrap;html=1;fontSize=16;strokeWidth=2;fontStyle=1" vertex="1" parent="1">
          <mxGeometry x="-210" y="175" width="90" height="50" as="geometry" />
        </mxCell>
        <mxCell id="netVUuGkZEvjik__96yR-4" value="" style="endArrow=none;html=1;rounded=0;exitX=0;exitY=0.5;exitDx=0;exitDy=0;entryX=1;entryY=0.5;entryDx=0;entryDy=0;fontSize=16;strokeColor=#000000;strokeWidth=2;fontStyle=1" edge="1" parent="1" source="netVUuGkZEvjik__96yR-2" target="netVUuGkZEvjik__96yR-3">
          <mxGeometry width="50" height="50" relative="1" as="geometry">
            <mxPoint x="360" y="520" as="sourcePoint" />
            <mxPoint x="410" y="470" as="targetPoint" />
          </mxGeometry>
        </mxCell>
        <mxCell id="netVUuGkZEvjik__96yR-5" value="Endereço" style="rounded=0;whiteSpace=wrap;html=1;fontSize=16;strokeWidth=2;fontStyle=1" vertex="1" parent="1">
          <mxGeometry x="-503" y="170" width="190" height="60" as="geometry" />
        </mxCell>
        <mxCell id="netVUuGkZEvjik__96yR-6" value="" style="endArrow=none;html=1;rounded=0;exitX=0;exitY=0.5;exitDx=0;exitDy=0;fontSize=16;strokeColor=#000000;strokeWidth=2;fontStyle=1" edge="1" parent="1">
          <mxGeometry width="50" height="50" relative="1" as="geometry">
            <mxPoint x="-210" y="198" as="sourcePoint" />
            <mxPoint x="-310" y="200" as="targetPoint" />
          </mxGeometry>
        </mxCell>
        <mxCell id="netVUuGkZEvjik__96yR-7" style="edgeStyle=orthogonalEdgeStyle;rounded=0;orthogonalLoop=1;jettySize=auto;html=1;exitX=0.5;exitY=1;exitDx=0;exitDy=0;fontSize=16;strokeWidth=2;fontStyle=1" edge="1" parent="1" source="netVUuGkZEvjik__96yR-5" target="netVUuGkZEvjik__96yR-5">
          <mxGeometry relative="1" as="geometry" />
        </mxCell>
        <mxCell id="netVUuGkZEvjik__96yR-8" value="nome" style="text;html=1;align=center;verticalAlign=middle;resizable=0;points=[];autosize=1;strokeColor=none;fillColor=none;fontSize=16;strokeWidth=2;fontStyle=1" vertex="1" parent="1">
          <mxGeometry x="-15" y="250" width="60" height="30" as="geometry" />
        </mxCell>
        <mxCell id="netVUuGkZEvjik__96yR-9" value="" style="endArrow=none;html=1;rounded=0;entryX=0.25;entryY=1;entryDx=0;entryDy=0;fontSize=16;strokeWidth=2;fontStyle=1" edge="1" parent="1" target="netVUuGkZEvjik__96yR-2">
          <mxGeometry width="50" height="50" relative="1" as="geometry">
            <mxPoint x="48" y="280" as="sourcePoint" />
            <mxPoint x="370" y="220" as="targetPoint" />
          </mxGeometry>
        </mxCell>
        <mxCell id="netVUuGkZEvjik__96yR-10" value="" style="endArrow=none;html=1;rounded=0;entryX=0.097;entryY=0.993;entryDx=0;entryDy=0;entryPerimeter=0;fontSize=16;strokeWidth=2;fontStyle=1" edge="1" parent="1" target="netVUuGkZEvjik__96yR-2">
          <mxGeometry width="50" height="50" relative="1" as="geometry">
            <mxPoint x="18" y="260" as="sourcePoint" />
            <mxPoint x="370" y="220" as="targetPoint" />
          </mxGeometry>
        </mxCell>
        <mxCell id="netVUuGkZEvjik__96yR-11" value="email&lt;span style=&quot;white-space: pre;&quot;&gt;&#x9;&lt;/span&gt;" style="text;html=1;align=center;verticalAlign=middle;whiteSpace=wrap;rounded=0;fontSize=16;strokeWidth=2;fontStyle=1" vertex="1" parent="1">
          <mxGeometry x="30" y="270" width="60" height="30" as="geometry" />
        </mxCell>
        <mxCell id="netVUuGkZEvjik__96yR-12" value="" style="endArrow=none;html=1;rounded=0;entryX=0.423;entryY=0.993;entryDx=0;entryDy=0;entryPerimeter=0;fontSize=16;strokeWidth=2;fontStyle=1" edge="1" parent="1">
          <mxGeometry width="50" height="50" relative="1" as="geometry">
            <mxPoint x="388.9885714285715" y="20" as="sourcePoint" />
            <mxPoint x="387.6399999999999" y="-8.526512829121202e-14" as="targetPoint" />
          </mxGeometry>
        </mxCell>
        <mxCell id="netVUuGkZEvjik__96yR-13" value="data_nasc" style="text;html=1;align=center;verticalAlign=middle;whiteSpace=wrap;rounded=0;fontSize=16;strokeWidth=2;fontStyle=1" vertex="1" parent="1">
          <mxGeometry x="50" y="300" width="60" height="30" as="geometry" />
        </mxCell>
        <mxCell id="netVUuGkZEvjik__96yR-14" value="" style="endArrow=none;html=1;rounded=0;entryX=0.649;entryY=1.011;entryDx=0;entryDy=0;entryPerimeter=0;fontSize=16;strokeWidth=2;fontStyle=1" edge="1" parent="1">
          <mxGeometry width="50" height="50" relative="1" as="geometry">
            <mxPoint x="431" y="50" as="sourcePoint" />
            <mxPoint x="430.5799999999999" y="1.079999999999842" as="targetPoint" />
          </mxGeometry>
        </mxCell>
        <mxCell id="netVUuGkZEvjik__96yR-15" value="data_cadastro" style="text;html=1;align=center;verticalAlign=middle;whiteSpace=wrap;rounded=0;fontSize=16;strokeWidth=2;fontStyle=1" vertex="1" parent="1">
          <mxGeometry x="90" y="330" width="60" height="30" as="geometry" />
        </mxCell>
        <mxCell id="netVUuGkZEvjik__96yR-16" value="" style="endArrow=none;html=1;rounded=0;entryX=0.108;entryY=1.03;entryDx=0;entryDy=0;entryPerimeter=0;fontSize=16;strokeWidth=2;fontStyle=1" edge="1" parent="1" target="netVUuGkZEvjik__96yR-5">
          <mxGeometry width="50" height="50" relative="1" as="geometry">
            <mxPoint x="-482" y="270" as="sourcePoint" />
            <mxPoint x="-750" y="270" as="targetPoint" />
          </mxGeometry>
        </mxCell>
        <mxCell id="netVUuGkZEvjik__96yR-17" value="rua" style="text;html=1;align=center;verticalAlign=middle;whiteSpace=wrap;rounded=0;fontSize=16;strokeWidth=2;fontStyle=1" vertex="1" parent="1">
          <mxGeometry x="-510" y="260" width="60" height="30" as="geometry" />
        </mxCell>
        <mxCell id="netVUuGkZEvjik__96yR-18" value="" style="endArrow=none;html=1;rounded=0;entryX=0.322;entryY=1.03;entryDx=0;entryDy=0;entryPerimeter=0;fontSize=16;strokeWidth=2;fontStyle=1" edge="1" parent="1" target="netVUuGkZEvjik__96yR-5">
          <mxGeometry width="50" height="50" relative="1" as="geometry">
            <mxPoint x="-442" y="290" as="sourcePoint" />
            <mxPoint x="-750" y="270" as="targetPoint" />
          </mxGeometry>
        </mxCell>
        <mxCell id="netVUuGkZEvjik__96yR-19" value="numero" style="text;html=1;align=center;verticalAlign=middle;whiteSpace=wrap;rounded=0;fontSize=16;strokeWidth=2;fontStyle=1" vertex="1" parent="1">
          <mxGeometry x="-470" y="290" width="60" height="30" as="geometry" />
        </mxCell>
        <mxCell id="netVUuGkZEvjik__96yR-20" value="" style="endArrow=none;html=1;rounded=0;entryX=0.5;entryY=1;entryDx=0;entryDy=0;exitX=1;exitY=1;exitDx=0;exitDy=0;fontSize=16;strokeWidth=2;fontStyle=1" edge="1" parent="1" source="netVUuGkZEvjik__96yR-19" target="netVUuGkZEvjik__96yR-5">
          <mxGeometry width="50" height="50" relative="1" as="geometry">
            <mxPoint x="-800" y="320" as="sourcePoint" />
            <mxPoint x="-750" y="270" as="targetPoint" />
          </mxGeometry>
        </mxCell>
        <mxCell id="netVUuGkZEvjik__96yR-21" value="bairro" style="text;html=1;align=center;verticalAlign=middle;whiteSpace=wrap;rounded=0;fontSize=16;strokeWidth=2;fontStyle=1" vertex="1" parent="1">
          <mxGeometry x="-438" y="320" width="60" height="30" as="geometry" />
        </mxCell>
        <mxCell id="netVUuGkZEvjik__96yR-22" value="" style="endArrow=none;html=1;rounded=0;entryX=0.804;entryY=1.047;entryDx=0;entryDy=0;entryPerimeter=0;fontSize=16;strokeWidth=2;fontStyle=1" edge="1" parent="1">
          <mxGeometry width="50" height="50" relative="1" as="geometry">
            <mxPoint x="-369.76" y="347.18" as="sourcePoint" />
            <mxPoint x="-369.9999999999998" y="230.00000000000006" as="targetPoint" />
          </mxGeometry>
        </mxCell>
        <mxCell id="netVUuGkZEvjik__96yR-23" value="cidade" style="text;html=1;align=center;verticalAlign=middle;whiteSpace=wrap;rounded=0;fontSize=16;strokeWidth=2;fontStyle=1" vertex="1" parent="1">
          <mxGeometry x="-400" y="340" width="60" height="30" as="geometry" />
        </mxCell>
        <mxCell id="netVUuGkZEvjik__96yR-24" value="(1,1)" style="text;html=1;align=center;verticalAlign=middle;whiteSpace=wrap;rounded=0;fontSize=16;strokeWidth=2;fontStyle=1" vertex="1" parent="1">
          <mxGeometry x="-320" y="175" width="60" height="30" as="geometry" />
        </mxCell>
        <mxCell id="netVUuGkZEvjik__96yR-25" value="(1,1)" style="text;html=1;align=center;verticalAlign=middle;whiteSpace=wrap;rounded=0;fontSize=16;strokeWidth=2;fontStyle=1" vertex="1" parent="1">
          <mxGeometry x="-50" y="175" width="60" height="30" as="geometry" />
        </mxCell>
        <mxCell id="netVUuGkZEvjik__96yR-26" value="Contato" style="rounded=0;whiteSpace=wrap;html=1;fontSize=16;strokeWidth=2;fontStyle=1" vertex="1" parent="1">
          <mxGeometry x="350" y="-90" width="120" height="90" as="geometry" />
        </mxCell>
        <mxCell id="netVUuGkZEvjik__96yR-27" value="" style="endArrow=none;html=1;rounded=0;entryX=0;entryY=0.5;entryDx=0;entryDy=0;fontSize=16;strokeColor=#000000;strokeWidth=2;fontStyle=1" edge="1" parent="1" target="netVUuGkZEvjik__96yR-26">
          <mxGeometry width="50" height="50" relative="1" as="geometry">
            <mxPoint x="170" y="-45" as="sourcePoint" />
            <mxPoint x="370" y="100" as="targetPoint" />
          </mxGeometry>
        </mxCell>
        <mxCell id="netVUuGkZEvjik__96yR-28" value="tem" style="rhombus;whiteSpace=wrap;html=1;fontSize=16;strokeWidth=2;fontStyle=1" vertex="1" parent="1">
          <mxGeometry x="80" y="-70" width="90" height="50" as="geometry" />
        </mxCell>
        <mxCell id="netVUuGkZEvjik__96yR-29" value="" style="endArrow=none;html=1;rounded=0;entryX=0.5;entryY=1;entryDx=0;entryDy=0;exitX=0.654;exitY=0.019;exitDx=0;exitDy=0;exitPerimeter=0;fontSize=16;strokeColor=#000000;strokeWidth=2;fontStyle=1" edge="1" parent="1" source="netVUuGkZEvjik__96yR-2" target="netVUuGkZEvjik__96yR-28">
          <mxGeometry width="50" height="50" relative="1" as="geometry">
            <mxPoint x="120" y="160" as="sourcePoint" />
            <mxPoint x="370" y="100" as="targetPoint" />
          </mxGeometry>
        </mxCell>
        <mxCell id="netVUuGkZEvjik__96yR-30" value="(1,1)" style="text;html=1;align=center;verticalAlign=middle;resizable=0;points=[];autosize=1;strokeColor=none;fillColor=none;fontSize=16;strokeWidth=2;fontStyle=1" vertex="1" parent="1">
          <mxGeometry x="60" y="138" width="60" height="30" as="geometry" />
        </mxCell>
        <mxCell id="netVUuGkZEvjik__96yR-31" value="&lt;div&gt;( 1 , n )&lt;/div&gt;" style="text;html=1;align=center;verticalAlign=middle;whiteSpace=wrap;rounded=0;fontSize=16;strokeWidth=2;fontStyle=1" vertex="1" parent="1">
          <mxGeometry x="290" y="-70" width="60" height="30" as="geometry" />
        </mxCell>
        <mxCell id="netVUuGkZEvjik__96yR-32" value="" style="endArrow=none;html=1;rounded=0;fontSize=16;strokeWidth=2;fontStyle=1" edge="1" parent="1">
          <mxGeometry width="50" height="50" relative="1" as="geometry">
            <mxPoint x="80.36000000000001" y="310" as="sourcePoint" />
            <mxPoint x="79" y="240" as="targetPoint" />
          </mxGeometry>
        </mxCell>
        <mxCell id="netVUuGkZEvjik__96yR-33" value="" style="endArrow=none;html=1;rounded=0;entryX=0.649;entryY=1.011;entryDx=0;entryDy=0;entryPerimeter=0;fontSize=16;strokeWidth=2;fontStyle=1" edge="1" parent="1">
          <mxGeometry width="50" height="50" relative="1" as="geometry">
            <mxPoint x="124.70999999999998" y="280" as="sourcePoint" />
            <mxPoint x="124.2899999999999" y="231.07999999999984" as="targetPoint" />
          </mxGeometry>
        </mxCell>
        <mxCell id="netVUuGkZEvjik__96yR-34" value="" style="endArrow=none;html=1;rounded=0;entryX=0.649;entryY=1.011;entryDx=0;entryDy=0;entryPerimeter=0;fontSize=16;strokeWidth=2;fontStyle=1" edge="1" parent="1">
          <mxGeometry width="50" height="50" relative="1" as="geometry">
            <mxPoint x="124" y="320" as="sourcePoint" />
            <mxPoint x="124.2899999999999" y="231.07999999999984" as="targetPoint" />
          </mxGeometry>
        </mxCell>
        <mxCell id="netVUuGkZEvjik__96yR-35" value="tipo" style="text;html=1;align=center;verticalAlign=middle;whiteSpace=wrap;rounded=0;fontSize=16;strokeWidth=2;fontStyle=1" vertex="1" parent="1">
          <mxGeometry x="354" y="20" width="60" height="30" as="geometry" />
        </mxCell>
        <mxCell id="netVUuGkZEvjik__96yR-36" value="numero" style="text;html=1;align=center;verticalAlign=middle;whiteSpace=wrap;rounded=0;fontSize=16;strokeWidth=2;fontStyle=1" vertex="1" parent="1">
          <mxGeometry x="410" y="50" width="60" height="30" as="geometry" />
        </mxCell>
        <mxCell id="netVUuGkZEvjik__96yR-37" value="vendedor" style="rounded=0;whiteSpace=wrap;html=1;fontSize=16;strokeWidth=2;fontStyle=1" vertex="1" parent="1">
          <mxGeometry x="720" y="-80" width="190" height="60" as="geometry" />
        </mxCell>
        <mxCell id="netVUuGkZEvjik__96yR-38" value="nome" style="text;html=1;align=center;verticalAlign=middle;resizable=0;points=[];autosize=1;strokeColor=none;fillColor=none;fontSize=16;strokeWidth=2;fontStyle=1" vertex="1" parent="1">
          <mxGeometry x="705" width="60" height="30" as="geometry" />
        </mxCell>
        <mxCell id="netVUuGkZEvjik__96yR-39" value="" style="endArrow=none;html=1;rounded=0;entryX=0.25;entryY=1;entryDx=0;entryDy=0;fontSize=16;strokeWidth=2;fontStyle=1" edge="1" parent="1" target="netVUuGkZEvjik__96yR-37">
          <mxGeometry width="50" height="50" relative="1" as="geometry">
            <mxPoint x="768" y="30" as="sourcePoint" />
            <mxPoint x="1090" y="-30" as="targetPoint" />
          </mxGeometry>
        </mxCell>
        <mxCell id="netVUuGkZEvjik__96yR-40" value="" style="endArrow=none;html=1;rounded=0;entryX=0.097;entryY=0.993;entryDx=0;entryDy=0;entryPerimeter=0;fontSize=16;strokeWidth=2;fontStyle=1" edge="1" parent="1" target="netVUuGkZEvjik__96yR-37">
          <mxGeometry width="50" height="50" relative="1" as="geometry">
            <mxPoint x="738" y="10" as="sourcePoint" />
            <mxPoint x="1090" y="-30" as="targetPoint" />
          </mxGeometry>
        </mxCell>
        <mxCell id="netVUuGkZEvjik__96yR-41" value="cpf" style="text;html=1;align=center;verticalAlign=middle;whiteSpace=wrap;rounded=0;fontSize=16;strokeWidth=2;fontStyle=1" vertex="1" parent="1">
          <mxGeometry x="740" y="20" width="60" height="30" as="geometry" />
        </mxCell>
        <mxCell id="netVUuGkZEvjik__96yR-42" value="data_nasc" style="text;html=1;align=center;verticalAlign=middle;whiteSpace=wrap;rounded=0;fontSize=16;strokeWidth=2;fontStyle=1" vertex="1" parent="1">
          <mxGeometry x="770" y="50" width="60" height="30" as="geometry" />
        </mxCell>
        <mxCell id="netVUuGkZEvjik__96yR-43" value="(1,1)" style="text;html=1;align=center;verticalAlign=middle;whiteSpace=wrap;rounded=0;fontSize=16;strokeWidth=2;fontStyle=1" vertex="1" parent="1">
          <mxGeometry x="670" y="-70" width="60" height="30" as="geometry" />
        </mxCell>
        <mxCell id="netVUuGkZEvjik__96yR-44" value="" style="endArrow=none;html=1;rounded=0;entryX=0.418;entryY=1.055;entryDx=0;entryDy=0;entryPerimeter=0;fontSize=16;strokeWidth=2;fontStyle=1" edge="1" parent="1" target="netVUuGkZEvjik__96yR-37">
          <mxGeometry width="50" height="50" relative="1" as="geometry">
            <mxPoint x="800.36" y="60" as="sourcePoint" />
            <mxPoint x="799.9999999999999" y="29.999999999999886" as="targetPoint" />
          </mxGeometry>
        </mxCell>
        <mxCell id="netVUuGkZEvjik__96yR-45" value="" style="endArrow=none;html=1;rounded=0;entryX=0.649;entryY=1.011;entryDx=0;entryDy=0;entryPerimeter=0;fontSize=16;strokeWidth=2;fontStyle=1" edge="1" parent="1">
          <mxGeometry width="50" height="50" relative="1" as="geometry">
            <mxPoint x="844.71" y="30" as="sourcePoint" />
            <mxPoint x="844.29" y="-18.920000000000158" as="targetPoint" />
          </mxGeometry>
        </mxCell>
        <mxCell id="netVUuGkZEvjik__96yR-46" value="" style="endArrow=none;html=1;rounded=0;entryX=0.649;entryY=1.011;entryDx=0;entryDy=0;entryPerimeter=0;fontSize=16;strokeWidth=2;fontStyle=1" edge="1" parent="1">
          <mxGeometry width="50" height="50" relative="1" as="geometry">
            <mxPoint x="844" y="70" as="sourcePoint" />
            <mxPoint x="844.29" y="-18.920000000000158" as="targetPoint" />
          </mxGeometry>
        </mxCell>
        <mxCell id="netVUuGkZEvjik__96yR-47" value="tem" style="rhombus;whiteSpace=wrap;html=1;fontSize=16;strokeWidth=2;fontStyle=1" vertex="1" parent="1">
          <mxGeometry x="560" y="-70" width="90" height="50" as="geometry" />
        </mxCell>
        <mxCell id="netVUuGkZEvjik__96yR-48" value="" style="endArrow=none;html=1;rounded=0;exitX=0;exitY=0.52;exitDx=0;exitDy=0;exitPerimeter=0;fontSize=16;strokeColor=#000000;strokeWidth=2;fontStyle=1" edge="1" parent="1" source="netVUuGkZEvjik__96yR-47">
          <mxGeometry width="50" height="50" relative="1" as="geometry">
            <mxPoint x="560" y="-50" as="sourcePoint" />
            <mxPoint x="470" y="-44" as="targetPoint" />
          </mxGeometry>
        </mxCell>
        <mxCell id="netVUuGkZEvjik__96yR-49" value="" style="endArrow=none;html=1;rounded=0;exitX=0;exitY=0.52;exitDx=0;exitDy=0;exitPerimeter=0;fontSize=16;strokeColor=#000000;strokeWidth=2;fontStyle=1" edge="1" parent="1">
          <mxGeometry width="50" height="50" relative="1" as="geometry">
            <mxPoint x="720" y="-45.71" as="sourcePoint" />
            <mxPoint x="650" y="-45.71" as="targetPoint" />
          </mxGeometry>
        </mxCell>
        <mxCell id="netVUuGkZEvjik__96yR-50" value="tem" style="rhombus;whiteSpace=wrap;html=1;fontSize=16;strokeWidth=2;fontStyle=1" vertex="1" parent="1">
          <mxGeometry x="560" y="-70" width="90" height="50" as="geometry" />
        </mxCell>
        <mxCell id="netVUuGkZEvjik__96yR-51" value="(1,n)" style="text;html=1;align=center;verticalAlign=middle;whiteSpace=wrap;rounded=0;fontSize=16;strokeWidth=2;fontStyle=1" vertex="1" parent="1">
          <mxGeometry x="460" y="-70" width="60" height="30" as="geometry" />
        </mxCell>
        <mxCell id="netVUuGkZEvjik__96yR-52" value="salario" style="text;html=1;align=center;verticalAlign=middle;whiteSpace=wrap;rounded=0;fontSize=16;strokeWidth=2;fontStyle=1" vertex="1" parent="1">
          <mxGeometry x="810" y="70" width="60" height="30" as="geometry" />
        </mxCell>
        <mxCell id="netVUuGkZEvjik__96yR-53" value="orçamento" style="rounded=0;whiteSpace=wrap;html=1;fontSize=16;strokeWidth=2;fontStyle=1" vertex="1" parent="1">
          <mxGeometry x="355" y="300" width="190" height="60" as="geometry" />
        </mxCell>
        <mxCell id="netVUuGkZEvjik__96yR-54" value="valor" style="text;html=1;align=center;verticalAlign=middle;resizable=0;points=[];autosize=1;strokeColor=none;fillColor=none;fontSize=16;strokeWidth=2;fontStyle=1" vertex="1" parent="1">
          <mxGeometry x="340" y="380" width="60" height="30" as="geometry" />
        </mxCell>
        <mxCell id="netVUuGkZEvjik__96yR-55" value="" style="endArrow=none;html=1;rounded=0;entryX=0.25;entryY=1;entryDx=0;entryDy=0;fontSize=16;strokeWidth=2;fontStyle=1" edge="1" parent="1" target="netVUuGkZEvjik__96yR-53">
          <mxGeometry width="50" height="50" relative="1" as="geometry">
            <mxPoint x="403" y="410" as="sourcePoint" />
            <mxPoint x="725" y="350" as="targetPoint" />
          </mxGeometry>
        </mxCell>
        <mxCell id="netVUuGkZEvjik__96yR-56" value="" style="endArrow=none;html=1;rounded=0;entryX=0.097;entryY=0.993;entryDx=0;entryDy=0;entryPerimeter=0;fontSize=16;strokeWidth=2;fontStyle=1" edge="1" parent="1" target="netVUuGkZEvjik__96yR-53">
          <mxGeometry width="50" height="50" relative="1" as="geometry">
            <mxPoint x="373" y="390" as="sourcePoint" />
            <mxPoint x="725" y="350" as="targetPoint" />
          </mxGeometry>
        </mxCell>
        <mxCell id="netVUuGkZEvjik__96yR-57" value="dt_orcamento" style="text;html=1;align=center;verticalAlign=middle;whiteSpace=wrap;rounded=0;fontSize=16;strokeWidth=2;fontStyle=1" vertex="1" parent="1">
          <mxGeometry x="350" y="400" width="60" height="30" as="geometry" />
        </mxCell>
        <mxCell id="netVUuGkZEvjik__96yR-58" value="venda" style="rounded=0;whiteSpace=wrap;html=1;fontSize=16;strokeWidth=2;fontStyle=1" vertex="1" parent="1">
          <mxGeometry x="735" y="168" width="190" height="60" as="geometry" />
        </mxCell>
        <mxCell id="netVUuGkZEvjik__96yR-59" value="valor" style="text;html=1;align=center;verticalAlign=middle;resizable=0;points=[];autosize=1;strokeColor=none;fillColor=none;fontSize=16;strokeWidth=2;fontStyle=1" vertex="1" parent="1">
          <mxGeometry x="720" y="248" width="60" height="30" as="geometry" />
        </mxCell>
        <mxCell id="netVUuGkZEvjik__96yR-60" value="" style="endArrow=none;html=1;rounded=0;entryX=0.395;entryY=1;entryDx=0;entryDy=0;fontSize=16;entryPerimeter=0;strokeWidth=2;fontStyle=1" edge="1" parent="1" target="netVUuGkZEvjik__96yR-58">
          <mxGeometry width="50" height="50" relative="1" as="geometry">
            <mxPoint x="810" y="280" as="sourcePoint" />
            <mxPoint x="1105" y="218" as="targetPoint" />
          </mxGeometry>
        </mxCell>
        <mxCell id="netVUuGkZEvjik__96yR-61" value="" style="endArrow=none;html=1;rounded=0;entryX=0.097;entryY=0.993;entryDx=0;entryDy=0;entryPerimeter=0;fontSize=16;strokeWidth=2;fontStyle=1" edge="1" parent="1" target="netVUuGkZEvjik__96yR-58">
          <mxGeometry width="50" height="50" relative="1" as="geometry">
            <mxPoint x="753" y="258" as="sourcePoint" />
            <mxPoint x="1105" y="218" as="targetPoint" />
          </mxGeometry>
        </mxCell>
        <mxCell id="netVUuGkZEvjik__96yR-62" value="data_venda" style="text;html=1;align=center;verticalAlign=middle;whiteSpace=wrap;rounded=0;fontSize=16;strokeWidth=2;fontStyle=1" vertex="1" parent="1">
          <mxGeometry x="770" y="270" width="60" height="28" as="geometry" />
        </mxCell>
        <mxCell id="netVUuGkZEvjik__96yR-63" value="status_venda" style="text;html=1;align=center;verticalAlign=middle;whiteSpace=wrap;rounded=0;fontSize=16;strokeWidth=2;fontStyle=1" vertex="1" parent="1">
          <mxGeometry x="840" y="298" width="60" height="30" as="geometry" />
        </mxCell>
        <mxCell id="netVUuGkZEvjik__96yR-64" value="" style="endArrow=none;html=1;rounded=0;entryX=0.649;entryY=1.011;entryDx=0;entryDy=0;entryPerimeter=0;fontSize=16;strokeWidth=2;fontStyle=1" edge="1" parent="1">
          <mxGeometry width="50" height="50" relative="1" as="geometry">
            <mxPoint x="449.29" y="448.92" as="sourcePoint" />
            <mxPoint x="449.58" y="359.99999999999983" as="targetPoint" />
          </mxGeometry>
        </mxCell>
        <mxCell id="netVUuGkZEvjik__96yR-66" value="status_orc" style="text;html=1;align=center;verticalAlign=middle;whiteSpace=wrap;rounded=0;fontSize=16;strokeWidth=2;fontStyle=1" vertex="1" parent="1">
          <mxGeometry x="420" y="440" width="60" height="30" as="geometry" />
        </mxCell>
        <mxCell id="netVUuGkZEvjik__96yR-67" value="" style="endArrow=none;html=1;rounded=0;entryX=0.418;entryY=1.055;entryDx=0;entryDy=0;entryPerimeter=0;fontSize=16;strokeWidth=2;fontStyle=1" edge="1" parent="1">
          <mxGeometry width="50" height="50" relative="1" as="geometry">
            <mxPoint x="870" y="307" as="sourcePoint" />
            <mxPoint x="870" y="230" as="targetPoint" />
          </mxGeometry>
        </mxCell>
        <mxCell id="netVUuGkZEvjik__96yR-68" value="tem" style="rhombus;whiteSpace=wrap;html=1;fontSize=16;strokeWidth=2;fontStyle=1" vertex="1" parent="1">
          <mxGeometry x="395" y="175" width="90" height="50" as="geometry" />
        </mxCell>
        <mxCell id="netVUuGkZEvjik__96yR-69" value="" style="endArrow=none;html=1;rounded=0;exitX=1;exitY=0.5;exitDx=0;exitDy=0;entryX=0;entryY=0.5;entryDx=0;entryDy=0;strokeColor=#000000;strokeWidth=2;fontStyle=1" edge="1" parent="1" source="netVUuGkZEvjik__96yR-2" target="netVUuGkZEvjik__96yR-68">
          <mxGeometry width="50" height="50" relative="1" as="geometry">
            <mxPoint x="340" y="290" as="sourcePoint" />
            <mxPoint x="390" y="240" as="targetPoint" />
          </mxGeometry>
        </mxCell>
        <mxCell id="netVUuGkZEvjik__96yR-70" value="" style="endArrow=none;html=1;rounded=0;entryX=0.5;entryY=1;entryDx=0;entryDy=0;exitX=0.447;exitY=0;exitDx=0;exitDy=0;exitPerimeter=0;strokeWidth=2;fontStyle=1" edge="1" parent="1" source="netVUuGkZEvjik__96yR-53" target="netVUuGkZEvjik__96yR-68">
          <mxGeometry width="50" height="50" relative="1" as="geometry">
            <mxPoint x="440" y="290" as="sourcePoint" />
            <mxPoint x="390" y="240" as="targetPoint" />
          </mxGeometry>
        </mxCell>
        <mxCell id="netVUuGkZEvjik__96yR-71" value="(0,n)" style="text;html=1;align=center;verticalAlign=middle;whiteSpace=wrap;rounded=0;fontSize=16;strokeWidth=2;fontStyle=1" vertex="1" parent="1">
          <mxGeometry x="395" y="248" width="60" height="30" as="geometry" />
        </mxCell>
        <mxCell id="netVUuGkZEvjik__96yR-72" value="(1,1)" style="text;html=1;align=center;verticalAlign=middle;whiteSpace=wrap;rounded=0;fontSize=16;strokeWidth=2;fontStyle=1" vertex="1" parent="1">
          <mxGeometry x="250" y="175" width="60" height="30" as="geometry" />
        </mxCell>
        <mxCell id="netVUuGkZEvjik__96yR-73" value="tem" style="rhombus;whiteSpace=wrap;html=1;fontSize=16;strokeWidth=2;fontStyle=1" vertex="1" parent="1">
          <mxGeometry x="580" y="100" width="90" height="50" as="geometry" />
        </mxCell>
        <mxCell id="netVUuGkZEvjik__96yR-74" value="" style="endArrow=none;html=1;rounded=0;entryX=0.5;entryY=1;entryDx=0;entryDy=0;exitX=1;exitY=0;exitDx=0;exitDy=0;strokeColor=#000000;strokeWidth=2;fontStyle=1" edge="1" parent="1" source="netVUuGkZEvjik__96yR-53" target="netVUuGkZEvjik__96yR-73">
          <mxGeometry width="50" height="50" relative="1" as="geometry">
            <mxPoint x="610" y="340" as="sourcePoint" />
            <mxPoint x="610" y="270" as="targetPoint" />
          </mxGeometry>
        </mxCell>
        <mxCell id="netVUuGkZEvjik__96yR-75" value="" style="endArrow=none;html=1;rounded=0;entryX=0;entryY=1;entryDx=0;entryDy=0;exitX=1;exitY=0;exitDx=0;exitDy=0;strokeColor=#000000;strokeWidth=2;fontStyle=1" edge="1" parent="1" source="netVUuGkZEvjik__96yR-73" target="netVUuGkZEvjik__96yR-37">
          <mxGeometry width="50" height="50" relative="1" as="geometry">
            <mxPoint x="340" y="290" as="sourcePoint" />
            <mxPoint x="390" y="240" as="targetPoint" />
          </mxGeometry>
        </mxCell>
        <mxCell id="netVUuGkZEvjik__96yR-76" value="(0,n)" style="text;html=1;align=center;verticalAlign=middle;whiteSpace=wrap;rounded=0;fontSize=16;strokeWidth=2;fontStyle=1" vertex="1" parent="1">
          <mxGeometry x="510" y="260" width="60" height="30" as="geometry" />
        </mxCell>
        <mxCell id="netVUuGkZEvjik__96yR-77" value="(1,1)" style="text;html=1;align=center;verticalAlign=middle;whiteSpace=wrap;rounded=0;fontSize=16;strokeWidth=2;fontStyle=1" vertex="1" parent="1">
          <mxGeometry x="660" y="-10" width="60" height="30" as="geometry" />
        </mxCell>
        <mxCell id="netVUuGkZEvjik__96yR-78" value="" style="endArrow=none;html=1;rounded=0;exitX=1;exitY=0;exitDx=0;exitDy=0;strokeColor=#000000;strokeWidth=2;fontStyle=1" edge="1" parent="1">
          <mxGeometry width="50" height="50" relative="1" as="geometry">
            <mxPoint x="545" y="355" as="sourcePoint" />
            <mxPoint x="970" y="355" as="targetPoint" />
          </mxGeometry>
        </mxCell>
        <mxCell id="netVUuGkZEvjik__96yR-79" value="tem" style="rhombus;whiteSpace=wrap;html=1;fontSize=16;strokeWidth=2;fontStyle=1" vertex="1" parent="1">
          <mxGeometry x="970" y="330" width="90" height="50" as="geometry" />
        </mxCell>
        <mxCell id="netVUuGkZEvjik__96yR-80" value="" style="endArrow=none;html=1;rounded=0;entryX=1;entryY=0.5;entryDx=0;entryDy=0;exitX=0.5;exitY=0;exitDx=0;exitDy=0;strokeColor=#000000;strokeWidth=2;fontStyle=1" edge="1" parent="1" source="netVUuGkZEvjik__96yR-79" target="netVUuGkZEvjik__96yR-58">
          <mxGeometry width="50" height="50" relative="1" as="geometry">
            <mxPoint x="555" y="310" as="sourcePoint" />
            <mxPoint x="635" y="160" as="targetPoint" />
            <Array as="points">
              <mxPoint x="1015" y="198" />
            </Array>
          </mxGeometry>
        </mxCell>
        <mxCell id="netVUuGkZEvjik__96yR-81" value="(1,1)" style="text;html=1;align=center;verticalAlign=middle;whiteSpace=wrap;rounded=0;fontSize=16;strokeWidth=2;fontStyle=1" vertex="1" parent="1">
          <mxGeometry x="545" y="328" width="60" height="30" as="geometry" />
        </mxCell>
        <mxCell id="netVUuGkZEvjik__96yR-82" value="(0,1)" style="text;html=1;align=center;verticalAlign=middle;whiteSpace=wrap;rounded=0;fontSize=16;strokeWidth=2;fontStyle=1" vertex="1" parent="1">
          <mxGeometry x="920" y="170" width="60" height="30" as="geometry" />
        </mxCell>
        <mxCell id="netVUuGkZEvjik__96yR-94" value="Cliente" style="swimlane;fontStyle=1;childLayout=stackLayout;horizontal=1;startSize=30;horizontalStack=0;resizeParent=1;resizeParentMax=0;resizeLast=0;collapsible=1;marginBottom=0;whiteSpace=wrap;html=1;strokeWidth=2;" vertex="1" parent="1">
          <mxGeometry x="-660" y="770" width="140" height="300" as="geometry" />
        </mxCell>
        <mxCell id="netVUuGkZEvjik__96yR-95" value="id : int ( pk )" style="text;strokeColor=none;fillColor=none;align=left;verticalAlign=middle;spacingLeft=4;spacingRight=4;overflow=hidden;points=[[0,0.5],[1,0.5]];portConstraint=eastwest;rotatable=0;whiteSpace=wrap;html=1;fontStyle=1;strokeWidth=2;" vertex="1" parent="netVUuGkZEvjik__96yR-94">
          <mxGeometry y="30" width="140" height="30" as="geometry" />
        </mxCell>
        <mxCell id="netVUuGkZEvjik__96yR-100" value="nome : varchar(50)" style="text;strokeColor=none;fillColor=none;align=left;verticalAlign=middle;spacingLeft=4;spacingRight=4;overflow=hidden;points=[[0,0.5],[1,0.5]];portConstraint=eastwest;rotatable=0;whiteSpace=wrap;html=1;fontStyle=1;strokeWidth=2;" vertex="1" parent="netVUuGkZEvjik__96yR-94">
          <mxGeometry y="60" width="140" height="30" as="geometry" />
        </mxCell>
        <mxCell id="netVUuGkZEvjik__96yR-96" value="email : varchar(60)&amp;nbsp;" style="text;strokeColor=none;fillColor=none;align=left;verticalAlign=middle;spacingLeft=4;spacingRight=4;overflow=hidden;points=[[0,0.5],[1,0.5]];portConstraint=eastwest;rotatable=0;whiteSpace=wrap;html=1;fontStyle=1;strokeWidth=2;" vertex="1" parent="netVUuGkZEvjik__96yR-94">
          <mxGeometry y="90" width="140" height="30" as="geometry" />
        </mxCell>
        <mxCell id="netVUuGkZEvjik__96yR-97" value="data_nasc : date" style="text;strokeColor=none;fillColor=none;align=left;verticalAlign=middle;spacingLeft=4;spacingRight=4;overflow=hidden;points=[[0,0.5],[1,0.5]];portConstraint=eastwest;rotatable=0;whiteSpace=wrap;html=1;fontStyle=1;strokeWidth=2;" vertex="1" parent="netVUuGkZEvjik__96yR-94">
          <mxGeometry y="120" width="140" height="30" as="geometry" />
        </mxCell>
        <mxCell id="netVUuGkZEvjik__96yR-98" value="data_cadastro : date" style="text;strokeColor=none;fillColor=none;align=left;verticalAlign=middle;spacingLeft=4;spacingRight=4;overflow=hidden;points=[[0,0.5],[1,0.5]];portConstraint=eastwest;rotatable=0;whiteSpace=wrap;html=1;fontStyle=1;strokeWidth=2;" vertex="1" parent="netVUuGkZEvjik__96yR-94">
          <mxGeometry y="150" width="140" height="30" as="geometry" />
        </mxCell>
        <mxCell id="netVUuGkZEvjik__96yR-101" value="rua : varchar(70)" style="text;strokeColor=none;fillColor=none;align=left;verticalAlign=middle;spacingLeft=4;spacingRight=4;overflow=hidden;points=[[0,0.5],[1,0.5]];portConstraint=eastwest;rotatable=0;whiteSpace=wrap;html=1;fontStyle=1;strokeWidth=2;" vertex="1" parent="netVUuGkZEvjik__96yR-94">
          <mxGeometry y="180" width="140" height="30" as="geometry" />
        </mxCell>
        <mxCell id="netVUuGkZEvjik__96yR-102" value="numero : int&amp;nbsp;" style="text;strokeColor=none;fillColor=none;align=left;verticalAlign=middle;spacingLeft=4;spacingRight=4;overflow=hidden;points=[[0,0.5],[1,0.5]];portConstraint=eastwest;rotatable=0;whiteSpace=wrap;html=1;fontStyle=1;strokeWidth=2;" vertex="1" parent="netVUuGkZEvjik__96yR-94">
          <mxGeometry y="210" width="140" height="30" as="geometry" />
        </mxCell>
        <mxCell id="netVUuGkZEvjik__96yR-104" value="bairro : varchar(70)" style="text;strokeColor=none;fillColor=none;align=left;verticalAlign=middle;spacingLeft=4;spacingRight=4;overflow=hidden;points=[[0,0.5],[1,0.5]];portConstraint=eastwest;rotatable=0;whiteSpace=wrap;html=1;fontStyle=1;strokeWidth=2;" vertex="1" parent="netVUuGkZEvjik__96yR-94">
          <mxGeometry y="240" width="140" height="30" as="geometry" />
        </mxCell>
        <mxCell id="netVUuGkZEvjik__96yR-105" value="cidade : varchar(70)" style="text;strokeColor=none;fillColor=none;align=left;verticalAlign=middle;spacingLeft=4;spacingRight=4;overflow=hidden;points=[[0,0.5],[1,0.5]];portConstraint=eastwest;rotatable=0;whiteSpace=wrap;html=1;fontStyle=1;strokeWidth=2;" vertex="1" parent="netVUuGkZEvjik__96yR-94">
          <mxGeometry y="270" width="140" height="30" as="geometry" />
        </mxCell>
        <mxCell id="netVUuGkZEvjik__96yR-106" value="Vendedor" style="swimlane;fontStyle=1;childLayout=stackLayout;horizontal=1;startSize=30;horizontalStack=0;resizeParent=1;resizeParentMax=0;resizeLast=0;collapsible=1;marginBottom=0;whiteSpace=wrap;html=1;strokeWidth=2;" vertex="1" parent="1">
          <mxGeometry x="-225" y="430" width="140" height="180" as="geometry" />
        </mxCell>
        <mxCell id="netVUuGkZEvjik__96yR-107" value="id : int ( pk )&amp;nbsp;" style="text;strokeColor=none;fillColor=none;align=left;verticalAlign=middle;spacingLeft=4;spacingRight=4;overflow=hidden;points=[[0,0.5],[1,0.5]];portConstraint=eastwest;rotatable=0;whiteSpace=wrap;html=1;fontStyle=1;strokeWidth=2;" vertex="1" parent="netVUuGkZEvjik__96yR-106">
          <mxGeometry y="30" width="140" height="30" as="geometry" />
        </mxCell>
        <mxCell id="netVUuGkZEvjik__96yR-108" value="nome : varchar(50)" style="text;strokeColor=none;fillColor=none;align=left;verticalAlign=middle;spacingLeft=4;spacingRight=4;overflow=hidden;points=[[0,0.5],[1,0.5]];portConstraint=eastwest;rotatable=0;whiteSpace=wrap;html=1;fontStyle=1;strokeWidth=2;" vertex="1" parent="netVUuGkZEvjik__96yR-106">
          <mxGeometry y="60" width="140" height="30" as="geometry" />
        </mxCell>
        <mxCell id="netVUuGkZEvjik__96yR-109" value="cpf: numeric" style="text;strokeColor=none;fillColor=none;align=left;verticalAlign=middle;spacingLeft=4;spacingRight=4;overflow=hidden;points=[[0,0.5],[1,0.5]];portConstraint=eastwest;rotatable=0;whiteSpace=wrap;html=1;fontStyle=1;strokeWidth=2;" vertex="1" parent="netVUuGkZEvjik__96yR-106">
          <mxGeometry y="90" width="140" height="30" as="geometry" />
        </mxCell>
        <mxCell id="netVUuGkZEvjik__96yR-112" value="data_nasc: date" style="text;strokeColor=none;fillColor=none;align=left;verticalAlign=middle;spacingLeft=4;spacingRight=4;overflow=hidden;points=[[0,0.5],[1,0.5]];portConstraint=eastwest;rotatable=0;whiteSpace=wrap;html=1;fontStyle=1;strokeWidth=2;" vertex="1" parent="netVUuGkZEvjik__96yR-106">
          <mxGeometry y="120" width="140" height="30" as="geometry" />
        </mxCell>
        <mxCell id="netVUuGkZEvjik__96yR-113" value="salario : numeric(18,2)" style="text;strokeColor=none;fillColor=none;align=left;verticalAlign=middle;spacingLeft=4;spacingRight=4;overflow=hidden;points=[[0,0.5],[1,0.5]];portConstraint=eastwest;rotatable=0;whiteSpace=wrap;html=1;fontStyle=1;strokeWidth=2;" vertex="1" parent="netVUuGkZEvjik__96yR-106">
          <mxGeometry y="150" width="140" height="30" as="geometry" />
        </mxCell>
        <mxCell id="netVUuGkZEvjik__96yR-114" value="Contato" style="swimlane;fontStyle=1;childLayout=stackLayout;horizontal=1;startSize=30;horizontalStack=0;resizeParent=1;resizeParentMax=0;resizeLast=0;collapsible=1;marginBottom=0;whiteSpace=wrap;html=1;strokeWidth=2;" vertex="1" parent="1">
          <mxGeometry x="-643" y="440" width="140" height="150" as="geometry" />
        </mxCell>
        <mxCell id="netVUuGkZEvjik__96yR-128" value="id : int (pk)" style="text;strokeColor=none;fillColor=none;align=left;verticalAlign=middle;spacingLeft=4;spacingRight=4;overflow=hidden;points=[[0,0.5],[1,0.5]];portConstraint=eastwest;rotatable=0;whiteSpace=wrap;html=1;fontStyle=1;strokeWidth=2;" vertex="1" parent="netVUuGkZEvjik__96yR-114">
          <mxGeometry y="30" width="140" height="30" as="geometry" />
        </mxCell>
        <mxCell id="netVUuGkZEvjik__96yR-115" value="tipo : varchar(50)" style="text;strokeColor=none;fillColor=none;align=left;verticalAlign=middle;spacingLeft=4;spacingRight=4;overflow=hidden;points=[[0,0.5],[1,0.5]];portConstraint=eastwest;rotatable=0;whiteSpace=wrap;html=1;fontStyle=1;strokeWidth=2;" vertex="1" parent="netVUuGkZEvjik__96yR-114">
          <mxGeometry y="60" width="140" height="30" as="geometry" />
        </mxCell>
        <mxCell id="netVUuGkZEvjik__96yR-116" value="numero: varchar(30)" style="text;strokeColor=none;fillColor=none;align=left;verticalAlign=middle;spacingLeft=4;spacingRight=4;overflow=hidden;points=[[0,0.5],[1,0.5]];portConstraint=eastwest;rotatable=0;whiteSpace=wrap;html=1;fontStyle=1;strokeWidth=2;" vertex="1" parent="netVUuGkZEvjik__96yR-114">
          <mxGeometry y="90" width="140" height="30" as="geometry" />
        </mxCell>
        <mxCell id="netVUuGkZEvjik__96yR-139" value="fk_id_cli_vend: inteiro" style="text;strokeColor=none;fillColor=none;align=left;verticalAlign=middle;spacingLeft=4;spacingRight=4;overflow=hidden;points=[[0,0.5],[1,0.5]];portConstraint=eastwest;rotatable=0;whiteSpace=wrap;html=1;fontStyle=1;strokeWidth=2;" vertex="1" parent="netVUuGkZEvjik__96yR-114">
          <mxGeometry y="120" width="140" height="30" as="geometry" />
        </mxCell>
        <mxCell id="netVUuGkZEvjik__96yR-118" value="orcamento" style="swimlane;fontStyle=1;childLayout=stackLayout;horizontal=1;startSize=30;horizontalStack=0;resizeParent=1;resizeParentMax=0;resizeLast=0;collapsible=1;marginBottom=0;whiteSpace=wrap;html=1;strokeWidth=2;" vertex="1" parent="1">
          <mxGeometry x="-235" y="820" width="160" height="210" as="geometry">
            <mxRectangle x="570" y="620" width="100" height="30" as="alternateBounds" />
          </mxGeometry>
        </mxCell>
        <mxCell id="netVUuGkZEvjik__96yR-127" value="id : int (pk)" style="text;strokeColor=none;fillColor=none;align=left;verticalAlign=middle;spacingLeft=4;spacingRight=4;overflow=hidden;points=[[0,0.5],[1,0.5]];portConstraint=eastwest;rotatable=0;whiteSpace=wrap;html=1;fontStyle=1;strokeWidth=2;" vertex="1" parent="netVUuGkZEvjik__96yR-118">
          <mxGeometry y="30" width="160" height="30" as="geometry" />
        </mxCell>
        <mxCell id="netVUuGkZEvjik__96yR-119" value="valor : numeric(18,2)" style="text;strokeColor=none;fillColor=none;align=left;verticalAlign=middle;spacingLeft=4;spacingRight=4;overflow=hidden;points=[[0,0.5],[1,0.5]];portConstraint=eastwest;rotatable=0;whiteSpace=wrap;html=1;fontStyle=1;strokeWidth=2;" vertex="1" parent="netVUuGkZEvjik__96yR-118">
          <mxGeometry y="60" width="160" height="30" as="geometry" />
        </mxCell>
        <mxCell id="netVUuGkZEvjik__96yR-120" value="dt_orcamento : date" style="text;strokeColor=none;fillColor=none;align=left;verticalAlign=middle;spacingLeft=4;spacingRight=4;overflow=hidden;points=[[0,0.5],[1,0.5]];portConstraint=eastwest;rotatable=0;whiteSpace=wrap;html=1;fontStyle=1;strokeWidth=2;" vertex="1" parent="netVUuGkZEvjik__96yR-118">
          <mxGeometry y="90" width="160" height="30" as="geometry" />
        </mxCell>
        <mxCell id="netVUuGkZEvjik__96yR-121" value="status_orc : varchar(50)" style="text;strokeColor=none;fillColor=none;align=left;verticalAlign=middle;spacingLeft=4;spacingRight=4;overflow=hidden;points=[[0,0.5],[1,0.5]];portConstraint=eastwest;rotatable=0;whiteSpace=wrap;html=1;fontStyle=1;strokeWidth=2;" vertex="1" parent="netVUuGkZEvjik__96yR-118">
          <mxGeometry y="120" width="160" height="30" as="geometry" />
        </mxCell>
        <mxCell id="netVUuGkZEvjik__96yR-130" value="fk_id_vendedor : inteiro" style="text;strokeColor=none;fillColor=none;align=left;verticalAlign=middle;spacingLeft=4;spacingRight=4;overflow=hidden;points=[[0,0.5],[1,0.5]];portConstraint=eastwest;rotatable=0;whiteSpace=wrap;html=1;fontStyle=1;strokeWidth=2;" vertex="1" parent="netVUuGkZEvjik__96yR-118">
          <mxGeometry y="150" width="160" height="30" as="geometry" />
        </mxCell>
        <mxCell id="netVUuGkZEvjik__96yR-137" value="fk_id_cliente : inteiro" style="text;strokeColor=none;fillColor=none;align=left;verticalAlign=middle;spacingLeft=4;spacingRight=4;overflow=hidden;points=[[0,0.5],[1,0.5]];portConstraint=eastwest;rotatable=0;whiteSpace=wrap;html=1;fontStyle=1;strokeWidth=2;" vertex="1" parent="netVUuGkZEvjik__96yR-118">
          <mxGeometry y="180" width="160" height="30" as="geometry" />
        </mxCell>
        <mxCell id="netVUuGkZEvjik__96yR-122" value="Venda" style="swimlane;fontStyle=1;childLayout=stackLayout;horizontal=1;startSize=30;horizontalStack=0;resizeParent=1;resizeParentMax=0;resizeLast=0;collapsible=1;marginBottom=0;whiteSpace=wrap;html=1;strokeWidth=2;" vertex="1" parent="1">
          <mxGeometry x="150" y="840" width="190" height="150" as="geometry" />
        </mxCell>
        <mxCell id="netVUuGkZEvjik__96yR-124" value="id : int (pk)" style="text;strokeColor=none;fillColor=none;align=left;verticalAlign=middle;spacingLeft=4;spacingRight=4;overflow=hidden;points=[[0,0.5],[1,0.5]];portConstraint=eastwest;rotatable=0;whiteSpace=wrap;html=1;fontStyle=1;strokeWidth=2;" vertex="1" parent="netVUuGkZEvjik__96yR-122">
          <mxGeometry y="30" width="190" height="30" as="geometry" />
        </mxCell>
        <mxCell id="netVUuGkZEvjik__96yR-126" value="data_venda : date" style="text;strokeColor=none;fillColor=none;align=left;verticalAlign=middle;spacingLeft=4;spacingRight=4;overflow=hidden;points=[[0,0.5],[1,0.5]];portConstraint=eastwest;rotatable=0;whiteSpace=wrap;html=1;fontStyle=1;strokeWidth=2;" vertex="1" parent="netVUuGkZEvjik__96yR-122">
          <mxGeometry y="60" width="190" height="30" as="geometry" />
        </mxCell>
        <mxCell id="netVUuGkZEvjik__96yR-125" value="status_venda : varchar(50)" style="text;strokeColor=none;fillColor=none;align=left;verticalAlign=middle;spacingLeft=4;spacingRight=4;overflow=hidden;points=[[0,0.5],[1,0.5]];portConstraint=eastwest;rotatable=0;whiteSpace=wrap;html=1;fontStyle=1;strokeWidth=2;" vertex="1" parent="netVUuGkZEvjik__96yR-122">
          <mxGeometry y="90" width="190" height="30" as="geometry" />
        </mxCell>
        <mxCell id="netVUuGkZEvjik__96yR-129" value="fk_id_orcamento : inteiro" style="text;strokeColor=none;fillColor=none;align=left;verticalAlign=middle;spacingLeft=4;spacingRight=4;overflow=hidden;points=[[0,0.5],[1,0.5]];portConstraint=eastwest;rotatable=0;whiteSpace=wrap;html=1;fontStyle=1;strokeWidth=2;" vertex="1" parent="netVUuGkZEvjik__96yR-122">
          <mxGeometry y="120" width="190" height="30" as="geometry" />
        </mxCell>
      </root>
    </mxGraphModel>
  </diagram>
</mxfile>
